HIERARCHY
ROOT Hips
{
  OFFSET 3.13124 94.3669 -3.18751
  CHANNELS  6 Xposition Yposition Zposition Zrotation Xrotation Yrotation
  JOINT LeftUpLeg
  {
    OFFSET 8.64259 1.95398 -2.38835
    CHANNELS 3 Zrotation Xrotation Yrotation
    JOINT LeftLeg
    {
      OFFSET 43.7702 0 0
      CHANNELS 3 Zrotation Xrotation Yrotation
      JOINT LeftFoot
      {
        OFFSET 40.6238 0 0
        CHANNELS 3 Zrotation Xrotation Yrotation
        JOINT LeftToeBase
        {
          OFFSET 12.7242 0 0
          CHANNELS 3 Zrotation Xrotation Yrotation
          End Site
          {
            OFFSET 0 0 0
          }
        }
      }
    }
  }
  JOINT RightUpLeg
  {
    OFFSET -8.2249 1.95398 -2.59336
    CHANNELS 3 Zrotation Xrotation Yrotation
    JOINT RightLeg
    {
      OFFSET 43.5653 0 0
      CHANNELS 3 Zrotation Xrotation Yrotation
      JOINT RightFoot
      {
        OFFSET 40.6238 0 0
        CHANNELS 3 Zrotation Xrotation Yrotation
        JOINT RightToeBase
        {
          OFFSET 12.7242 0 0
          CHANNELS 3 Zrotation Xrotation Yrotation
          End Site
          {
            OFFSET 0 0 0
          }
        }
      }
    }
  }
  JOINT Spine
  {
    OFFSET 0.165834 0.87714 6.61349
    CHANNELS 3 Zrotation Xrotation Yrotation
    JOINT Spine1
    {
      OFFSET 7.38962 1.71661e-005 0
      CHANNELS 3 Zrotation Xrotation Yrotation
      JOINT Spine2
      {
        OFFSET 11.9445 1.14441e-005 0
        CHANNELS 3 Zrotation Xrotation Yrotation
        JOINT Spine3
        {
          OFFSET 14.7254 4.19617e-005 0
          CHANNELS 3 Zrotation Xrotation Yrotation
          JOINT Spine4
          {
            OFFSET 10.9679 0 0
            CHANNELS 3 Zrotation Xrotation Yrotation
            JOINT RightShoulder
            {
              OFFSET 2.46616 -1.6653 3.69651
              CHANNELS 3 Zrotation Xrotation Yrotation
              JOINT RightArm
              {
                OFFSET 13.0012 0 0
                CHANNELS 3 Zrotation Xrotation Yrotation
                JOINT RightForeArm
                {
                  OFFSET 28.7848 1.52588e-005 0
                  CHANNELS 3 Zrotation Xrotation Yrotation
                  JOINT RightHand
                  {
                    OFFSET 26.5688 1.52588e-005 0
                    CHANNELS 3 Zrotation Xrotation Yrotation
                    End Site
                    {
                      OFFSET 0 0 0
                    }
                  }
                }
              }
            }
            JOINT LeftShoulder
            {
              OFFSET 2.38034 -1.29275 -3.75231
              CHANNELS 3 Zrotation Xrotation Yrotation
              JOINT LeftArm
              {
                OFFSET 16.3182 6.10352e-005 0
                CHANNELS 3 Zrotation Xrotation Yrotation
                JOINT LeftForeArm
                {
                  OFFSET 27.0901 0 0
                  CHANNELS 3 Zrotation Xrotation Yrotation
                  JOINT LeftHand
                  {
                    OFFSET 24.5451 1.52588e-005 0
                    CHANNELS 3 Zrotation Xrotation Yrotation
                    End Site
                    {
                      OFFSET 0 0 0
                    }
                  }
                }
              }
            }
            JOINT Neck
            {
              OFFSET 5.0226 -0.0266342 0
              CHANNELS 3 Zrotation Xrotation Yrotation
              JOINT Head
              {
                OFFSET 6.69363 2.86102e-005 0
                CHANNELS 3 Zrotation Xrotation Yrotation
                End Site
                {
                  OFFSET 0 0 0
                }
              }
            }
          }
        }
      }
    }
  }
}
MOTION
Frames:	15
Frame Time:	0.0333333
2.19876 96.6632 -24.278 2.10257 -89.9927 2.16813 -171.158 2.97517 93.2856 -8.81087 8.72744 1.49049 63.3194 1.45675 0.748875 28.7808 3.85081e-006 3.71953e-006 177.879 2.0859 86.2212 -7.7013 -2.08994 -0.130102 62.7585 -1.35903 -0.691763 28.7808 1.45319e-005 3.28444e-005 0.00531894 6.33899 -90.0664 14.196 0.00343549 0.000687616 2.52501 0.00388688 0.00066994 -20.0101 0.00240999 0.000724296 0.00249921 0.00240451 0.000721518 101.063 -18.5199 -84.9011 -2.27413 44.1221 -20.2035 1.76825 0.501763 -4.647 -5.37983 -0.320007 -0.0162409 -78.9864 -21.4657 94.309 14.0141 -39.7043 -7.27646 -2.54893 39.8267 -5.40042 1.17184 0.09564 1.64251 1.74857 -0.000662193 -0.00236715 -7.40602 -0.000369629 0.00138157 
2.2189 96.6131 -24.3107 -15.0163 -89.8859 -14.9855 -171.217 3.10535 93.2181 -8.87397 8.70992 1.52375 63.4797 1.41069 0.724261 28.7808 3.85081e-006 3.71953e-006 178.008 3.66797 86.1996 -10.66 -2.07369 -0.130101 63.9506 -1.37354 -0.716419 28.7808 1.45319e-005 3.28444e-005 0.00398434 6.32154 -90.0391 14.2308 0.00319002 0.0102435 2.55985 0.0036114 0.0100691 -19.9753 0.00240999 0.0107774 0.0373417 0.00240451 0.0107755 101.076 -18.5997 -84.8766 -2.31592 44.1696 -20.2687 1.76716 0.501759 -4.65315 -5.37983 -0.320007 -0.0162409 -78.9597 -21.3831 94.3509 13.9592 -39.6526 -7.26011 -2.66144 39.6219 -5.34846 1.47753 0.107686 1.52139 1.68072 -0.0117387 -0.0330429 -7.33395 -0.00695665 0.0212526 
2.20267 96.6227 -24.3254 -89.3068 -89.9319 -89.3201 -171.173 3.12872 93.2102 -9.12498 8.65025 1.46117 63.4537 1.4761 0.756768 28.7808 3.85081e-006 3.71953e-006 178.001 3.47821 86.1551 -10.4642 -2.13522 -0.130113 63.8725 -1.41877 -0.74254 28.7808 1.45319e-005 3.28444e-005 0.000643004 6.33992 -90.0058 14.1941 0.000426002 0.000153555 2.52311 0.000432053 0.000135901 -20.0121 0.00240999 0.000277184 0.000594266 0.00240451 0.00027723 101.164 -18.4869 -84.8348 -2.32733 44.0835 -20.2647 1.87483 0.502449 -4.67539 -5.37983 -0.320007 -0.0162409 -78.8442 -21.4036 94.456 13.9646 -39.6236 -7.19868 -2.3682 39.838 -5.61099 0.9285 0.0757494 1.39594 1.81156 -0.0286845 0.0539111 -7.34738 -0.0247383 -0.00826257 
2.22169 96.631 -24.3551 -77.6442 -89.9065 -77.6623 -171.209 3.13977 93.1793 -9.08627 8.57914 1.46557 63.4148 1.49984 0.770732 28.7808 3.85081e-006 3.71953e-006 177.986 3.47303 86.1419 -10.3647 -2.14407 -0.130085 63.8097 -1.40836 -0.73495 28.7808 1.45319e-005 3.28444e-005 0.00637789 6.31933 -90.0098 14.2352 0.0132854 0.0112782 2.56426 0.013779 0.0106782 -19.9709 0.00240999 0.0147503 0.041772 0.00240451 0.0147645 101.12 -18.339 -84.7654 -2.13663 44.0555 -20.2967 1.74792 0.512132 -4.63979 -5.37983 -0.320007 -0.0162409 -78.9081 -21.3377 94.4801 13.9394 -39.6784 -7.15789 -2.12893 40.5871 -5.77076 1.26782 0.0987411 1.58132 1.65926 -0.0556521 0.283266 -7.2688 -0.0867396 -0.260589 
2.20228 96.6251 -24.3679 -120.12 -89.875 -120.137 -171.162 3.10914 93.2149 -9.17816 8.64126 1.458 63.4582 1.52218 0.782346 28.7808 3.85081e-006 3.71953e-006 178.003 3.4515 86.1511 -10.4812 -2.16402 -0.129821 63.8788 -1.42436 -0.730931 28.7808 1.45319e-005 3.28444e-005 -0.000327237 6.34079 -89.9984 14.1923 -0.00035697 -0.000308355 2.52136 -0.000385653 -0.000299188 -20.0138 0.00240999 -0.000410102 -0.0011582 0.00240451 -0.000409368 101.182 -18.3349 -84.8415 -2.29368 44.0464 -20.1904 1.90662 0.499067 -4.66949 -5.37983 -0.320007 -0.0162409 -78.7778 -21.4031 94.5727 14.0365 -39.7467 -7.0398 -1.94761 40.46 -5.97115 1.15954 0.0954221 1.65546 1.77051 -0.0684496 0.402013 -7.21123 -0.118293 -0.28675 
2.20043 96.6288 -24.3919 -115.933 -89.8769 -115.948 -171.16 3.15315 93.2113 -9.21644 8.63571 1.44885 63.4374 1.54436 0.794794 28.7808 3.85081e-006 3.71953e-006 177.993 3.41029 86.1404 -10.3443 -2.23047 -0.129374 63.8086 -1.41087 -0.729037 28.7808 1.45319e-005 3.28444e-005 -0.000464286 6.34012 -89.9946 14.1934 -2.36227e-005 -2.8865e-005 2.52249 -1.8195e-005 -3.20551e-005 -20.0127 0.00240999 -2.69739e-005 -2.12725e-005 0.00240451 -3.42039e-005 101.198 -18.3234 -84.7991 -2.2736 44.075 -20.221 1.77568 0.511734 -4.63539 -5.37983 -0.320007 -0.0162409 -78.7389 -21.3765 94.6586 14.0658 -39.7173 -7.03329 -1.87106 40.7964 -6.01607 1.02845 0.0857023 1.56124 1.79692 -0.0969754 0.512547 -7.17033 -0.15598 -0.319094 
2.20171 96.6283 -24.4128 -127.054 -89.875 -127.073 -171.17 3.14465 93.2051 -9.22292 8.66051 1.46733 63.4461 1.52083 0.797635 28.7808 3.85081e-006 3.71953e-006 177.992 3.40806 86.1386 -10.3647 -2.19063 -0.128785 63.8243 -1.40174 -0.73257 28.7808 1.45319e-005 3.28444e-005 -5.94464e-005 6.33738 -89.9973 14.1939 0.000468662 0.00056134 2.52293 0.000504008 0.000531245 -20.0122 0.00240999 0.000680967 0.000424332 0.00240451 0.000674561 101.233 -18.2623 -84.7105 -2.19009 44.0561 -20.283 1.72364 0.517393 -4.61478 -5.37983 -0.320007 -0.0162409 -78.7495 -21.4508 94.6474 14.2412 -39.7365 -6.97035 -2.01747 40.5225 -5.91631 1.05107 0.0845183 1.48134 1.7522 -0.0797372 0.726703 -7.10626 -0.180534 -0.465256 
2.19773 96.6217 -24.4353 -133.73 -89.8212 -133.756 -171.156 3.12842 93.2094 -9.2689 8.63275 1.45062 63.4771 1.53701 0.796055 28.7808 3.85081e-006 3.71953e-006 178.009 3.49749 86.143 -10.6081 -2.15858 -0.128113 63.9197 -1.42541 -0.747275 28.7808 1.45319e-005 3.28444e-005 0.00342141 6.33376 -89.9802 14.2057 0.0129641 0.0163429 2.53473 0.0136705 0.0157528 -20.0004 0.00240999 0.0194823 0.0122256 0.00240451 0.0194774 101.142 -18.35 -84.7314 -2.32707 44.0694 -20.1427 1.75039 0.518126 -4.60397 -5.37983 -0.320007 -0.0162409 -78.8204 -21.258 94.6567 14.1681 -39.6876 -6.89488 -2.12538 39.9195 -6.00293 1.42268 0.111635 1.72044 1.64954 -0.116946 0.618545 -7.09662 -0.198418 -0.366067 
2.19993 96.6148 -24.4567 -136.709 -89.8487 -136.742 -171.173 3.14639 93.1931 -9.24642 8.69022 1.47499 63.4693 1.53861 0.791726 28.7808 3.85081e-006 3.71953e-006 178.013 3.57135 86.145 -10.6997 -2.07969 -0.127407 63.9311 -1.4399 -0.755576 28.7808 1.45319e-005 3.28444e-005 0.00164077 6.33143 -89.9821 14.2111 0.0101627 0.0245506 2.54014 0.0112487 0.0240643 -19.995 0.00240942 0.0265564 0.0176298 0.00240409 0.0265462 101.183 -18.3347 -84.6219 -2.2391 44.0309 -20.2216 1.77165 0.516822 -4.60086 -5.37983 -0.320007 -0.0162409 -78.7931 -21.2595 94.7226 14.1485 -39.8202 -6.92104 -1.8083 39.7473 -6.0397 0.708198 0.0501469 0.855172 1.64124 -0.119002 0.650156 -7.09847 -0.200691 -0.375121 
2.2025 96.6299 -24.4686 -136.982 -89.8178 -136.985 -171.159 3.13151 93.224 -9.244 8.68069 1.46931 63.4367 1.52408 0.783433 28.7808 3.85081e-006 3.71953e-006 177.974 3.16784 86.1587 -9.907 -2.1858 -0.126736 63.6305 -1.44899 -0.757198 28.7808 1.45319e-005 3.28444e-005 0.00647993 6.33099 -89.9947 14.2136 0.0093043 0.0215143 2.54264 0.0104723 0.0206979 -19.9925 0.00147347 0.0258744 0.0201273 0.00147088 0.0258727 101.156 -18.3191 -84.6914 -2.38222 44.0325 -20.0338 1.78905 0.515762 -4.60109 -5.37983 -0.320007 -0.0162409 -78.8076 -21.3148 94.6932 14.2779 -39.765 -6.84718 -2.1477 39.5843 -6.0261 1.66871 0.121849 1.64946 1.56682 -0.115145 0.701883 -7.02275 -0.206308 -0.400214 
2.20553 96.6243 -24.4876 -154.824 -89.7749 -154.855 -171.159 3.1344 93.1984 -9.38824 8.739 1.49297 63.504 1.56267 0.804357 28.7808 3.85081e-006 3.71953e-006 178 3.43146 86.1232 -10.5942 -2.17184 -0.126127 63.9275 -1.43595 -0.753472 28.7808 1.45319e-005 3.28444e-005 0.000941301 6.33151 -89.9689 14.2148 0.0119451 0.0277253 2.54383 0.0131742 0.0267944 -19.9913 0.00291787 0.0305476 0.0213348 0.00291715 0.0305483 101.115 -18.3692 -84.7798 -2.5166 44.0744 -19.9044 1.79919 0.515453 -4.60346 -5.37983 -0.320007 -0.0162409 -78.8423 -21.2955 94.6226 14.3564 -39.7289 -6.71646 -2.19891 39.5834 -5.99582 1.62727 0.120127 1.65748 1.43838 -0.10134 0.697633 -6.91528 -0.189652 -0.383878 
2.21237 96.6265 -24.5102 -147.463 -89.7857 -147.494 -171.175 3.14452 93.1863 -9.33556 8.7141 1.48398 63.4531 1.61823 0.836806 28.7808 3.85081e-006 3.71953e-006 177.98 3.31319 86.1257 -10.2565 -2.16003 -0.125642 63.7639 -1.46848 -0.769918 28.7808 1.45319e-005 3.28444e-005 0.00652059 6.33275 -89.9786 14.2152 0.0224584 0.0336126 2.54427 0.0239107 0.0326082 -19.9909 0.0112786 0.0389202 0.0217758 0.0112776 0.0389203 101.137 -18.2968 -84.7299 -2.46045 44.0308 -19.8979 1.8188 0.515171 -4.60675 -5.37983 -0.320007 -0.0162409 -78.8425 -21.3091 94.6221 14.3299 -39.7433 -6.72499 -2.1071 39.4077 -6.07948 1.32418 0.1049 1.68023 1.46484 -0.117601 0.703727 -6.96063 -0.207662 -0.376407 
2.2228 96.623 -24.524 -148.65 -89.7499 -148.636 -171.158 3.04077 93.2334 -9.17607 8.69731 1.46839 63.4908 1.56673 0.811381 28.7808 3.85081e-006 3.71953e-006 177.96 3.11006 86.1603 -9.89354 -2.17444 -0.125334 63.6231 -1.45068 -0.757125 28.7808 1.45319e-005 3.28444e-005 0.0136342 6.33412 -90.0109 14.2154 0.0321783 0.031352 2.54448 0.0337742 0.0302178 -19.9907 0.0199419 0.0436128 0.0219858 0.0199487 0.0436177 101.117 -18.3088 -84.7779 -2.53925 44.0399 -19.7796 1.82671 0.514912 -4.6141 -5.37983 -0.320007 -0.0162409 -78.8871 -21.3234 94.5245 14.3651 -39.7602 -6.63507 -2.07299 39.0622 -6.1127 1.15755 0.0916113 1.53586 1.37562 -0.116679 0.695201 -6.88621 -0.203869 -0.402463 
2.22697 96.6538 -24.5411 -150.822 -89.6857 -150.792 -171.129 3.06241 93.2545 -9.32675 8.70862 1.45494 63.4662 1.60426 0.830132 28.7808 3.85081e-006 3.71953e-006 177.917 2.58405 86.1542 -8.92897 -2.2604 -0.125259 63.2529 -1.39183 -0.719028 28.7808 1.45319e-005 3.28444e-005 0.0107641 6.33516 -90.0007 14.2161 0.0303493 0.0313844 2.54516 0.0352481 0.0301502 -19.99 0.0201876 0.0380053 0.0226542 0.0201917 0.0380078 101.077 -18.2956 -84.8819 -2.59736 44.0388 -19.6992 1.84139 0.514665 -4.64111 -5.37983 -0.320007 -0.0162409 -78.8646 -21.4281 94.5778 14.4157 -39.7794 -6.63822 -2.01678 38.8969 -6.1842 0.899764 0.0776885 1.51403 1.28887 -0.0943842 0.680607 -6.75714 -0.181705 -0.366741 
2.23411 96.6326 -24.5547 -157.011 -89.6304 -157.045 -171.149 3.14425 93.188 -9.64508 8.71543 1.46829 63.5653 1.75239 0.910355 28.7808 3.85081e-006 3.71953e-006 177.971 3.23679 86.079 -10.3956 -2.26267 -0.125454 63.8614 -1.42686 -0.747736 28.7808 1.45319e-005 3.28444e-005 0.0059616 6.33525 -89.953 14.2138 0.0267605 0.0423234 2.54284 0.0331746 0.0410924 -19.9923 0.016929 0.0484159 0.0203306 0.016927 0.0484064 101.043 -18.329 -84.9623 -2.66574 44.081 -19.6446 1.82667 0.514492 -4.59837 -5.37983 -0.320007 -0.0162409 -78.8948 -21.4401 94.5139 14.4756 -39.7287 -6.53069 -1.97656 38.7265 -6.26905 0.574709 0.0591602 1.44436 1.14361 -0.0764889 0.714074 -6.59714 -0.162796 -0.488977 
